<?xml version="1.0" encoding="utf-8"?>
<!-- Generator: Adobe Illustrator 23.1.0, SVG Export Plug-In . SVG Version: 6.00 Build 0)  -->
<svg version="1.1" id="图层_1" xmlns="http://www.w3.org/2000/svg" xmlns:xlink="http://www.w3.org/1999/xlink" x="0px" y="0px"
	 viewBox="0 0 595.28 841.89" style="enable-background:new 0 0 595.28 841.89;background-color:#223A4D;" xml:space="preserve" >
<style type="text/css">
	.st0{display:none;fill:#DCDDDD;}
	.st1{display:none;}
	.st2{fill:#DCDDDD;}
	.st3{fill:#2B333B;}
</style>
<g>
	<path class="st0" d="M478.34,183.13"/>
	<path class="st1" d="M471.51,266.27"/>
	<g>
		<path class="st2" d="M177.52,480.25c-19.04,0-38.08-0.06-57.12,0.06c-2.76,0.02-3.47-0.74-3.46-3.47
			c0.09-34.71-0.13-69.43,0.17-104.14c0.1-11.58,1.63-23.14,5.34-34.21c3.12-9.33,7.74-17.9,12.76-26.41
			c3.77-6.39,9.07-10.95,13.97-15.98c3.61-3.7,8.38-6.31,12.81-9.18c5.27-3.41,11.06-5.61,16.67-8.26
			c5.19-2.46,10.81-3.29,16.29-4.7c6.56-1.68,13.29-2.21,19.95-3.24c1.02-0.16,2.07-0.2,3.11-0.2c34.02-0.01,68.03,0.04,102.05-0.09
			c3.26-0.01,3.98,0.92,3.96,4.04c-0.12,30.53,0.1,61.07-0.22,91.6c-0.08,7.62-1.6,15.26-2.4,22.88
			c-0.68,6.56-2.16,12.92-3.88,19.16c-3.49,12.68-9.02,24.48-16.83,35.2c-6.16,8.46-13.39,15.81-22.09,21.48
			c-5.81,3.78-11.8,7.33-18.64,9.45c-3.46,1.07-6.98,2.87-10.46,3.55c-5.23,1.03-10.46,2.49-15.91,2.47
			C214.9,480.21,196.21,480.25,177.52,480.25z"/>
		<g>
			<path class="st3" d="M189.88,368.9c0-10.56-0.46-21.14,0.11-31.66c0.89-16.22,5.59-31.1,17.93-42.54
				c8.21-7.62,18.11-11.99,28.8-14.79c7.98-2.09,16.1-2.15,24.25-2.12c17.53,0.07,35.06,0.08,52.59-0.04
				c2.69-0.02,3.54,0.69,3.52,3.49c-0.11,19.84,0.09,39.68-0.14,59.51c-0.07,5.96-1.78,11.79-3.17,17.62
				c-2.94,12.26-7.98,23.36-17.17,32.12c-8.33,7.94-18.26,12.91-29.73,14.54c-20.64,2.94-41.39,0.67-62.08,1.37
				c-3.69,0.12-7.39-0.17-11.07,0.08c-2.98,0.2-3.98-0.66-3.93-3.82C189.99,391.41,189.87,380.16,189.88,368.9z"/>
			<path class="st2" d="M256.2,331.73c1.12,0.93,2.43,1.65,3.75,2.32c1.9,0.98,3.92,1.76,5.82,2.75c3.34,1.71,6.27,3.97,8.59,6.96
				c5.3,6.85,4.44,15.45-2.18,21.82c-5.04,4.85-11.22,7.54-17.9,9.1c-12.71,2.95-25.16,1.58-37.35-2.8c-0.06-0.02-0.13-0.09-0.3-0.2
				c2.53-7.51,3.25-10.6,5.52-17.06c2.82,0.76,3.62,1.13,6.39,1.63c5.64,1,11.35,1.73,17.06,0.65c1.36-0.26,2.71-0.69,3.92-1.32
				c2.07-1.04,2.18-2.69,0.24-3.99c-1.27-0.87-2.71-1.5-4.16-2.06c-2.3-0.93-4.74-1.54-6.96-2.6c-5.17-2.47-8.79-6.35-9.54-12.24
				c-0.67-5.2,0.86-9.97,3.88-14.24c4.05-5.68,9.82-8.71,16.33-10.57c4.61-1.32,9.35-1.78,14.11-1.78h26.75
				c-1.92,5.92-4.42,13.67-5.6,17.34c0,0-6.56-0.15-17.31-0.04c-2.74,0.04-5.47,0.76-8.21,1.26c-0.88,0.17-1.74,0.63-2.52,1.11
				C254.67,328.89,254.52,330.34,256.2,331.73z"/>
		</g>
	</g>
</g>
</svg>
