<?xml version="1.0" standalone="no"?><!DOCTYPE svg PUBLIC "-//W3C//DTD SVG 1.1//EN" "http://www.w3.org/Graphics/SVG/1.1/DTD/svg11.dtd"><svg t="1574253171921" class="icon" viewBox="0 0 1024 1024" version="1.1" xmlns="http://www.w3.org/2000/svg" p-id="1537" xmlns:xlink="http://www.w3.org/1999/xlink" width="200" height="200"><defs><style type="text/css"></style></defs><path d="M120 526.912l3.84-7.936a1626.496 1626.496 0 0 1 24.64-47.808c7.552-15.168 2.496-26.24-2.56-43.904-5.12-17.664-12.544-27.2-13.312-39.36-10.88-111.552 18.88-193.728 84.352-264C294.208 40.32 401.28 6.4 512 6.4c160.896 1.472 233.28 39.04 318.08 134.912 72.576 84.992 97.92 162.56 97.92 264.96 0 22.208-5.568 46.4-15.616 72.448-8.832 22.848-21.056 46.72-35.712 71.04a712.832 712.832 0 0 1-49.984 72.192c-12.288 13.952-21.632 28.8-28.544 44.288-19.456 44.224-17.92 92.608-3.072 138.88 4.096 12.864 8.128 22.144 10.496 26.624l19.264 36.608-40.32 9.472c-118.4 27.84-210.368 67.968-288.192 115.84l-39.424 24.256-8.768-45.44a73.792 73.792 0 0 0-9.472-20.224 246.784 246.784 0 0 0-12.928-18.88 428.416 428.416 0 0 0-28.224-33.856c-6.848-8.576-15.36-12.672-27.776-13.888a137.6 137.6 0 0 0-33.92 2.112l-15.232 2.176c-43.52 5.696-76.16 2.368-99.456-7.68a72.768 72.768 0 0 1-19.712-12.096c-15.68-10.944-21.632-28.224-23.04-49.28a155.776 155.776 0 0 1 2.752-38.784c1.664-6.208 1.408-7.552-1.28-11.328l-4.352-5.824c-10.816-16.896-15.232-33.28-14.08-47.744a50.24 50.24 0 0 1-16.256-32.192l0.192-32.256a66.56 66.56 0 0 1-38.144-24.704 55.552 55.552 0 0 1-11.2-33.024c-0.576-14.72 6.784-32.512 24-68.096zM555.008 391.68c10.432 4.48 19.392 8.96 26.88 11.904 4.48-5.952 10.432-10.432 14.848-16.384-4.48-10.432-10.432-19.392-14.848-29.824 0-1.472 1.472-4.48 2.944-5.952 3.008-4.48 5.952-10.432 8.96-16.384 11.904-1.536 22.4-1.536 34.24-1.536 0 0 1.536-1.472 1.536-2.944 1.472-5.952 4.48-11.968 5.952-17.92-8.96-5.952-17.92-13.44-26.88-19.328 1.536-7.488 1.536-16.448 1.536-23.872 10.432-4.48 19.392-10.432 29.824-14.912-1.472-7.424-1.472-14.912-3.008-22.4-10.432-1.472-22.4-2.944-32.768-5.952l-4.48-13.44c-1.472-4.416-4.48-8.896-5.952-13.376 5.952-8.96 13.44-17.92 19.392-26.816 1.472-1.472 0-3.008 0-3.008-3.008-4.48-4.48-7.424-7.488-10.432-1.472-2.944-2.944-4.48-4.48-7.424l-31.296 8.96c-4.48-3.008-8.96-7.488-13.44-11.968-1.472-1.472-4.48-2.944-4.48-4.48 1.536-10.368 4.48-20.8 6.016-31.296-5.952-4.48-13.44-7.424-19.392-11.904-7.424 5.952-14.912 13.44-23.872 17.92-1.472 1.472-2.944 0-4.48 0a109.824 109.824 0 0 0-20.8-6.016c-1.536-10.432-4.48-20.864-7.488-31.296-7.424 0-14.912-1.472-22.4-1.472-4.48 10.432-8.896 19.392-13.376 29.824v1.472c-7.424 0-13.44 1.472-20.864 1.472-5.952-8.96-13.44-16.384-16.384-26.816-1.472 1.536-4.48 1.536-7.488 3.008l-13.44 4.48v32.768c-4.416 3.008-10.368 5.952-14.848 8.96a32.448 32.448 0 0 0-11.904 7.424l-31.36-13.44c-4.48 6.016-10.368 10.496-14.848 16.448 4.48 10.432 10.432 19.392 14.912 29.824 0 1.472-1.536 4.48-3.008 5.952-3.008 5.952-5.952 10.432-8.96 16.384 0 1.472-1.472 1.472-2.944 1.472-10.432 1.536-20.864 1.536-31.36 1.536-1.472 1.472-1.472 1.472-1.472 2.944-2.944 5.952-4.48 11.904-5.952 17.92-1.472 1.472 1.472 2.944 1.472 2.944 8.96 5.952 16.448 11.968 25.344 17.92-1.472 7.424-1.472 14.912-1.472 23.808-10.432 4.48-19.392 10.432-29.824 14.912 1.536 7.488 1.536 14.912 3.008 22.4 10.432 1.472 22.4 2.944 32.768 5.952 3.008 7.424 4.48 14.912 7.488 20.864l-22.4 26.816c4.48 5.952 7.488 13.44 11.968 19.392h1.472c11.904-3.008 22.4-4.48 32.768-7.488 1.536 3.008 3.008 4.48 4.48 5.952 4.48 6.016 10.432 11.968 16.384 16.448-1.472 11.904-4.48 22.336-5.952 34.24 5.952 4.48 13.44 8.96 19.392 11.968 7.424-7.488 16.384-14.912 25.344-22.4 5.952 1.536 11.904 4.48 19.392 5.952 1.472 0 2.944 0 2.944 1.536 3.008 10.432 5.952 22.4 8.96 32.768 7.424 0 14.912 1.472 22.4 1.472 1.472 0 1.472-1.472 1.472-1.472 4.48-10.432 8.96-20.864 13.44-29.824 7.424 0 13.376-1.472 20.8-2.944 5.952 8.96 13.44 16.384 19.392 25.344 1.472-1.536 4.48-1.536 7.424-3.008l13.44-4.48v-32.768c4.48-3.008 10.432-5.952 14.912-8.96 4.48-1.472 8.96-4.48 11.904-7.424z m251.904 83.456c0-3.008 1.536-7.488 3.008-10.432-4.48-4.48-10.432-8.96-19.392-5.952 1.472-4.48 1.472-10.432 1.472-14.912l17.92-8.96c0-4.48 0-8.96-1.472-13.44-6.016-1.472-13.44-2.944-19.392-4.48-1.536-2.944-1.536-5.952-3.008-8.96 0-2.944-1.472-5.888-2.944-8.896 4.48-5.952 7.424-10.432 11.904-16.384 1.472 0 0-1.472 0-1.472-1.472-1.536-3.008-4.48-4.48-6.016-1.472-1.472-1.472-2.944-3.008-4.48-5.952 1.536-13.44 4.48-19.328 6.016-1.536-3.008-4.48-4.48-7.488-7.488-1.472-1.472-2.944-1.472-2.944-2.944 0-5.952 1.472-13.44 2.944-19.392-4.48-3.008-7.424-4.48-11.904-7.424a58.368 58.368 0 0 0-14.912 11.904c-1.472 1.472-1.472 0-3.008 0-2.944-3.008-7.424-3.008-11.904-4.48-1.472-5.952-2.944-13.44-4.48-19.392-4.48-1.472-8.96-1.472-13.44-1.472-2.944 5.952-4.48 11.904-7.424 17.92-4.48 0-7.424 1.472-11.904 1.472-4.48-4.48-7.488-10.432-11.904-14.912-1.536 0-3.008 1.472-4.48 1.472-3.008 1.472-5.952 1.472-8.96 3.008v20.864a31.168 31.168 0 0 1-8.96 5.952c-2.944 1.472-4.48 2.944-7.424 4.48l-17.92-8.96c-2.944 4.48-5.952 7.424-8.96 10.432l8.96 17.92s-1.472 1.472-1.472 2.944c-3.008 3.008-4.48 5.952-5.952 8.96h-20.864v1.472c-1.472 3.008-1.472 7.488-3.008 10.432l1.536 1.472c4.48 3.008 10.432 7.488 14.848 10.432-1.472 4.48-1.472 10.432-1.472 14.912l-17.92 8.96c0 4.48 1.536 8.96 1.536 13.44 5.952 1.472 13.44 2.944 19.392 4.48 1.472 4.48 2.944 7.424 4.48 11.904-4.48 5.952-8.96 10.432-13.44 16.384 3.008 4.48 4.48 7.488 7.424 11.904h1.536c5.952-1.472 13.44-2.944 19.328-4.48 0 1.536 1.536 1.536 6.016 1.536 2.944 2.944 7.424 5.952 10.432 8.96-1.536 7.424-3.008 13.44-4.48 20.864 4.48 2.944 7.424 4.48 11.904 7.424 5.952-4.48 10.432-8.96 16.384-13.44 4.48 1.536 7.488 3.008 11.968 4.48 0 1.536 1.472 0 1.472 1.536 1.472 5.952 2.944 13.44 4.48 19.328 4.48 0 8.96 1.536 13.44 1.536v-1.536c2.944-5.952 4.48-11.904 7.424-17.92 2.944 0 7.424 0 11.904-1.408 4.48 4.48 7.488 10.432 11.904 14.848 1.536 0 3.008-1.472 4.48-1.472 3.008-1.472 6.016-1.472 8.96-2.944v-20.864c3.008-3.008 5.952-4.48 8.96-6.016 2.944-1.472 4.48-2.944 7.424-4.48l17.92 8.96c2.944-4.48 5.952-7.424 8.96-10.432l-8.96-17.92s1.472-1.472 1.472-2.944c3.008-2.944 4.48-7.424 5.952-10.432h20.864v-1.472z m-137.088 13.696a59.648 59.648 0 1 1 59.584-103.232 59.648 59.648 0 0 1-59.584 103.232zM403.392 358.4a102.848 102.848 0 1 1 102.912-178.112 102.848 102.848 0 0 1-102.912 178.112z" p-id="1538" fill="#515151"></path></svg>