<?xml version="1.0" standalone="no"?><!DOCTYPE svg PUBLIC "-//W3C//DTD SVG 1.1//EN" "http://www.w3.org/Graphics/SVG/1.1/DTD/svg11.dtd"><svg t="1574257210297" class="icon" viewBox="0 0 1024 1024" version="1.1" xmlns="http://www.w3.org/2000/svg" p-id="2650" xmlns:xlink="http://www.w3.org/1999/xlink" width="200" height="200"><defs><style type="text/css"></style></defs><path d="M519.870745 229.797647a152.335059 152.335059 0 0 0 34.615216-4.798745h5.320784c12.267922-4.015686 24.053961-9.376627 35.157333-15.962353h4.798746c10.701804-5.842824 20.86149-12.629333 30.358588-20.239059l3.734588-3.212549c9.577412-8.131765 18.472157-17.046588 26.624-26.624l3.212549-3.212549c8.111686-10.039216 15.420235-20.720941 21.825255-31.924706V120.06902c6.344784-11.605333 11.685647-23.712627 15.962353-36.221491v-2.670431c4.296784-12.810039 7.328627-26.001569 9.055372-39.413961a185.886118 185.886118 0 0 0 0-41.542274 224.757961 224.757961 0 0 0-200.262274 229.034666l9.59749 0.52204zM807.474196 604.762353a216.244706 216.244706 0 0 1-14.376157-85.232941 209.839686 209.839686 0 0 1 36.22149-110.230588 242.346667 242.346667 0 0 1 70.294589-68.186353 233.813333 233.813333 0 0 0-152.314981-96.396549 247.667451 247.667451 0 0 0-34.635294-4.256628h-64.451765l-15.420235 4.256628-11.725804 3.714509-14.918274 5.340863-10.641569 8.513255-17.588706 6.927059-14.376157 5.862902-10.119529 3.71451-12.247843 3.734588h-6.927059c-5.481412 0.622431-11.023059 0.622431-16.504471 0a76.699608 76.699608 0 0 1-15.982431 0h-5.862902l-11.705725-3.192471-8.533334-3.212549-12.247843-3.172392-20.239059-7.991216-7.991215-2.670431-14.376157-5.320784-9.577412-3.212549-13.332078-4.236549h-10.11953l-13.854118-2.670432h-10.641568l-12.769883-3.734588c-32.727843 0.200784-65.094275 6.686118-95.35247 19.174902A288.12549 288.12549 0 0 0 84.188863 544.045176v53.248c0 4.256627 0 19.174902 3.734588 28.772393 3.734588 9.577412 0 10.641569 3.212549 15.962353 3.172392 5.340863 3.172392 17.066667 5.320784 25.579921 2.128314 8.513255 3.192471 11.183686 4.778667 16.504471 1.606275 5.320784 4.256627 15.982431 6.927059 23.973647 2.670431 7.991216 4.256627 11.705725 6.384941 17.568627l7.991216 22.367373 7.469176 17.046588c3.192471 6.927059 5.842824 14.376157 9.035294 21.303216l8.011294 15.982431 10.641569 20.761098 9.055373 15.460392 11.183686 19.174902 9.59749 14.376157 11.705726 17.568628 10.119529 13.312 12.247843 15.460392 10.641569 12.247843 12.247843 13.312 11.203765 10.641568 12.247843 11.183687 11.183686 8.533333 12.247843 9.035294 11.183686 6.425098 11.725804 6.364863 10.641569 3.734588 11.725804 3.734588 13.854117 4.256628h12.247844a159.784157 159.784157 0 0 0 42.606431-7.449098 328.081569 328.081569 0 0 1 125.148863-34.093177c8.874667-0.602353 17.769412-0.602353 26.644078 0h8.513255l14.376157 3.212549 9.055372 2.650353 11.183687 3.71451 9.59749 3.734588 13.854118 5.862902 12.247843 5.320785 7.991215 2.670431 10.641569 3.71451h45.276863a152.335059 152.335059 0 0 0 94.268235-43.670588 545.390431 545.390431 0 0 0 117.699765-164.040785c9.035294-16.624941 17.207216-33.671529 24.495686-51.119686a244.99702 244.99702 0 0 1-128.883451-133.682196z" fill="#515151" p-id="2651"></path></svg>