<?xml version="1.0" standalone="no"?><!DOCTYPE svg PUBLIC "-//W3C//DTD SVG 1.1//EN" "http://www.w3.org/Graphics/SVG/1.1/DTD/svg11.dtd"><svg t="1574256792772" class="icon" viewBox="0 0 1024 1024" version="1.1" xmlns="http://www.w3.org/2000/svg" p-id="7261" xmlns:xlink="http://www.w3.org/1999/xlink" width="200" height="200"><defs><style type="text/css"></style></defs><path d="M917.2992 104.448H106.0864c-32.6656 0-58.1632 29.0304-54.528 61.8496l85.504 681.984c1.792 20.0192 14.5408 36.4032 32.768 43.7248l320.0512 128c12.7488 5.3248 29.1328 5.3248 41.8304 0l320.1536-128c18.176-7.3216 30.9248-23.7056 32.7168-43.6736l85.504-682.0352c5.4272-34.6112-20.0192-61.9008-52.7872-61.9008z m-3.584 83.6608l-80.0768 634.7264c-1.8432 9.1136-7.2704 18.176-16.384 21.9136l-294.656 116.9408a22.7328 22.7328 0 0 1-21.76 0L206.1824 844.8c-9.1136-3.7376-14.5408-12.8-16.384-21.9136L109.824 188.1088a27.6992 27.6992 0 0 1 27.2896-30.9248h749.3632c16.3328 1.792 29.0816 16.384 27.2896 30.9248z" fill="#515151" p-id="7262"></path><path d="M744.5504 271.7696H306.176c-32.7168 0-58.2144 29.0816-54.528 61.8496l20.0192 154.624c3.584 27.2384 27.2896 47.2576 54.5792 47.2576h334.592c16.384 0 29.184 14.592 27.2896 30.9248l-10.9056 90.9312c-1.8432 9.1136-7.2704 18.2272-16.384 21.8112l-136.3968 58.2144a23.1424 23.1424 0 0 1-21.8112 0l-136.448-58.2144c-9.1136-3.584-14.4896-12.6976-16.3328-21.8112l-3.6352-32.768a28.2112 28.2112 0 0 0-30.9248-23.6032 28.2112 28.2112 0 0 0-23.6544 30.9248l5.4784 47.2576c1.8432 19.968 14.4896 36.352 32.7168 43.6736l161.8944 69.12c12.6976 5.376 29.0816 5.376 41.8304 0l161.8432-69.12c18.2272-7.3216 30.9248-23.7056 32.768-43.6736l16.384-138.1888a55.5008 55.5008 0 0 0-54.5792-61.8496h-342.016a27.648 27.648 0 0 1-27.2384-23.7056l-12.6976-99.9936a27.6992 27.6992 0 0 1 27.2896-30.9248h407.3472a29.0304 29.0304 0 0 0 27.3408-21.8624c3.584-14.5408-9.0624-30.8736-25.4464-30.8736"  p-id="7263" fill="#515151"></path></svg>