<?xml version="1.0" standalone="no"?><!DOCTYPE svg PUBLIC "-//W3C//DTD SVG 1.1//EN" "http://www.w3.org/Graphics/SVG/1.1/DTD/svg11.dtd"><svg t="1574256581588" class="icon" viewBox="0 0 1055 1024" version="1.1" xmlns="http://www.w3.org/2000/svg" p-id="2532" fill="#515151" data-spm-anchor-id="a313x.7781069.0.i2" xmlns:xlink="http://www.w3.org/1999/xlink" width="206.0546875" height="200"><defs><style type="text/css"></style></defs><path d="M915.582 190.688l-0.117-0.045-351.336-125.394c-0.528-0.166-13.121-4.043-29.804-4.043-10.174 0-19.777 1.433-28.543 4.258-26.264 8.465-336.558 120.251-349.754 125.006l-0.269 0.102c-3.256 1.295-31.813 13.272-31.813 34.465v410.53l0.174 0.86c0.399 1.97 10.416 49.042 66.142 117.541 32.381 39.802 73.699 78.797 122.807 115.9 61.167 46.216 134.705 89.645 218.57 129.083l3.722 1.75 3.722-1.752c83.754-39.436 157.258-82.827 218.47-128.965 49.143-37.041 90.546-75.948 123.062-115.642 55.955-68.309 66.268-115.191 66.68-117.155l0.186-0.888v-411.227c-0.001-21.345-28.634-33.111-31.898-34.383zM892.078 253.583v370.678c-1.53 5.938-12.862 45-57.897 99.569-28.695 34.769-65.241 68.92-108.622 101.507-53.41 40.119-117.375 77.953-190.17 112.483-72.883-34.53-136.873-72.394-190.236-112.573-43.341-32.634-79.803-66.852-108.373-101.705-44.959-54.847-55.99-94.107-57.432-99.88v-370.108c0-5.427 10.542-12.575 18.202-15.688 8.125-2.928 292.853-105.496 316.16-113.009 6.287-2.025 13.265-3.053 20.744-3.053 11.678 0 20.784 2.538 21.916 2.869l317.523 113.334c7.66 3.048 18.186 10.117 18.186 15.578z" p-id="2533"></path><path d="M676.077 444.199c-6.737-20.903-19.104-39.74-35.855-54.263-21.784-18.888-49.682-29.29-78.553-29.29-30.119 0-58.662 11.294-80.729 31.494-2.67-0.266-5.326-0.399-7.983-0.399-32.772 0-62.191 17.949-77.556 46.025-17.788 6.859-33.696 18.319-45.827 33.21-15.853 19.458-24.583 44.016-24.583 69.148 0 60.533 49.255 101.427 109.797 101.427l234.662 0.745c40.815-15.678 69.122-55.025 69.122-100.44 0-42.313-24.935-80.189-62.495-97.657zM635.802 588.67l-6.071 0.682h-194.942c-27.163 0-49.262-22.083-49.262-49.227 0-22.822 16.21-42.986 38.544-47.945l16.905-3.753 5.332-16.479c3.804-11.755 14.512-19.653 26.648-19.653 2.531 0 5.417 0.55 8.823 1.683l20.052 6.667 13.168-16.53c11.601-14.563 28.611-22.915 46.668-22.915 29.504 0 54.291 21.261 58.939 50.553l3.083 19.435 19.008 5.073c20.806 5.553 35.338 24.304 35.338 45.599 0.001 23.98-18.155 44.104-42.232 46.811z" p-id="2534" data-spm-anchor-id="a313x.7781069.0.i1" class="selected" fill="#515151"></path></svg>