<?xml version="1.0" standalone="no"?><!DOCTYPE svg PUBLIC "-//W3C//DTD SVG 1.1//EN" "http://www.w3.org/Graphics/SVG/1.1/DTD/svg11.dtd"><svg t="1574256951060" class="icon" viewBox="0 0 1024 1024" version="1.1" xmlns="http://www.w3.org/2000/svg" p-id="1793" xmlns:xlink="http://www.w3.org/1999/xlink" width="200" height="200"><defs><style type="text/css"></style></defs><path d="M154.023648 331.177519c-35.207333 0-63.66835 28.31043-63.668351 63.216588v264.70252c0 34.906158 28.55137 63.18647 63.668351 63.186471 35.207333 0 63.66835-28.31043 63.66835-63.186471v-264.732638a63.397293 63.397293 0 0 0-63.66835-63.18647z m88.304447 422.126582a67.764327 67.764327 0 0 0 67.97515 67.49327h46.380917v140.016159c0 34.87604 28.55137 63.18647 63.66835 63.18647 35.207333 0 63.66835-28.31043 63.66835-63.18647v-140.016159h85.985402v140.016159c0 34.87604 28.55137 63.18647 63.66835 63.18647 35.207333 0 63.66835-28.31043 63.66835-63.18647v-140.016159h46.380918a67.764327 67.764327 0 0 0 67.975149-67.49327v-410.200061H242.328095v410.200061zM667.677248 93.369906L712.130646 12.956238a8.643716 8.643716 0 0 0-3.523745-11.866286 8.824421 8.824421 0 0 0-11.986756 3.493627l-44.935279 81.196723a308.854745 308.854745 0 0 0-124.626127-25.901032 310.511206 310.511206 0 0 0-124.626127 25.810679L357.497334 4.583579a8.824421 8.824421 0 0 0-11.986757-3.493627 8.643716 8.643716 0 0 0-3.523745 11.896404l44.453399 80.413668c-87.280453 44.784691-146.340829 129.987038-146.340829 227.688139h573.798205c0.12047-97.791454-58.939906-182.903448-146.220359-227.688139z m-271.177779 124.626128a23.973513 23.973513 0 0 1-24.033748-23.913279c0-13.191456 10.782057-23.913278 24.033748-23.913278 13.281808 0 24.033748 10.721822 24.033748 23.913278a24.093983 24.093983 0 0 1-24.033748 23.913279z m261.208893 0a23.973513 23.973513 0 0 1-24.033748-23.913279c0-13.191456 10.75194-23.913278 24.033748-23.913278 13.251691 0 24.033748 10.721822 24.033748 23.913278a24.093983 24.093983 0 0 1-24.033748 23.913279z m242.385469 113.181485c-35.207333 0-63.66835 28.31043-63.66835 63.216588v264.70252c0 34.906158 28.581487 63.18647 63.66835 63.186471 35.207333 0 63.66835-28.31043 63.66835-63.186471v-264.732638a63.397293 63.397293 0 0 0-63.66835-63.18647z" p-id="1794" fill="#515151"></path></svg>