<?xml version="1.0" standalone="no"?><!DOCTYPE svg PUBLIC "-//W3C//DTD SVG 1.1//EN" "http://www.w3.org/Graphics/SVG/1.1/DTD/svg11.dtd"><svg t="1574311490039" class="icon" viewBox="0 0 1024 1024" version="1.1" xmlns="http://www.w3.org/2000/svg" p-id="5035" xmlns:xlink="http://www.w3.org/1999/xlink" width="200" height="200"><defs><style type="text/css"></style></defs><path d="M300.60032 863.3856l352.31232-351.35488-352.31232-351.3856a56.69376 56.69376 0 0 1-18.49856-39.28064 56.76544 56.76544 0 0 1 94.91968-44.65664l397.91104 392.95488 0.19968 0.2304 0.36352 0.27648 0.11264 0.11264-0.03072 0 1.5104 1.44896 0.31232 0.2816 1.44896 1.54624 0.256 0.27648a56.47872 56.47872 0 0 1 14.6944 40.85248 56.60672 56.60672 0 0 1-18.17088 39.04L377.0112 947.32288a56.4992 56.4992 0 0 1-40.87808 14.68928 56.54528 56.54528 0 0 1-39.3216-18.46272 56.7808 56.7808 0 0 1-14.72-40.8576 56.82688 56.82688 0 0 1 18.5088-39.30624z" fill="#1D70B7" p-id="5036"></path></svg>