<?xml version="1.0" standalone="no"?><!DOCTYPE svg PUBLIC "-//W3C//DTD SVG 1.1//EN" "http://www.w3.org/Graphics/SVG/1.1/DTD/svg11.dtd"><svg t="1574257310060" class="icon" viewBox="0 0 1228 1024" version="1.1" xmlns="http://www.w3.org/2000/svg" p-id="4704" xmlns:xlink="http://www.w3.org/1999/xlink" width="239.84375" height="200"><defs><style type="text/css"></style></defs><path d="M424.214682 569.542751c-19.445305 0.102344-35.052721 13.560542-34.950377 30.03788 0.051172 16.528509 15.863275 29.833192 35.257408 29.833191 19.445305-0.051172 35.103893-13.458198 35.103893-29.935535-0.102344-16.579681-15.914447-29.935535-35.410924-29.935536z m641.541552 287.07411c-19.445305 0.102344-35.052721 13.560542-35.001549 30.089051 0.102344 16.477337 15.863275 29.833192 35.30858 29.78202 19.445305 0 35.103893-13.407026 35.103893-29.935536-0.102344-16.579681-15.914447-29.935535-35.410924-29.935535z m-130.795263-54.03748a13.458198 13.458198 0 0 0-8.699215 3.070312 9.722653 9.722653 0 0 0-3.58203 7.368747v131.255809c0 5.78242 5.475389 10.439059 12.281245 10.439059 6.754685 0 12.281245-4.656639 12.281246-10.439059v-131.255809a9.722653 9.722653 0 0 0-3.684374-7.471091 13.50937 13.50937 0 0 0-8.852731-2.967968h0.255859zM287.278797 569.542751c-19.445305 0.102344-35.052721 13.560542-35.001549 30.03788 0.102344 16.528509 15.863275 29.833192 35.30858 29.833191 19.445305-0.051172 35.103893-13.458198 35.103893-29.935535-0.102344-16.579681-15.914447-29.935535-35.410924-29.935536z m-136.270651 0c-19.445305 0.102344-35.052721 13.560542-34.950378 30.03788 0.051172 16.528509 15.863275 29.833192 35.308581 29.833191 19.342961-0.051172 35.052721-13.458198 35.052721-29.935535a28.144521 28.144521 0 0 0-10.592575-21.338664 38.941782 38.941782 0 0 0-25.278896-8.596872h0.511718z m628.595072 233.03663c-6.754685 0-12.281245 4.656639-12.281245 10.439059v131.255809c0 5.78242 5.52656 10.439059 12.281245 10.439059 6.805857 0 12.281245-4.656639 12.281246-10.439059v-131.255809a9.722653 9.722653 0 0 0-3.735546-7.522263 13.560542 13.560542 0 0 0-9.006246-2.916796h0.511718zM424.7264 856.616861c-19.445305 0.102344-35.052721 13.560542-35.001549 30.089051 0.102344 16.477337 15.863275 29.833192 35.308581 29.78202 19.394133 0 35.103893-13.407026 35.103892-29.935536a28.144521 28.144521 0 0 0-10.592574-21.287492 38.941782 38.941782 0 0 0-25.278896-8.648043h0.460546z m-136.270651 0c-19.445305 0.102344-35.052721 13.560542-34.950377 30.089051 0.051172 16.477337 15.863275 29.833192 35.257408 29.78202 19.445305 0 35.103893-13.407026 35.103893-29.935536a28.144521 28.144521 0 0 0-10.848433-21.492179 39.095298 39.095298 0 0 0-25.688271-8.443356h1.12578z m569.542752-54.03748c-6.754685 0-12.281245 4.656639-12.281245 10.439059v131.255809c0 5.78242 5.52656 10.439059 12.281245 10.439059 6.805857 0 12.281245-4.656639 12.281245-10.439059v-131.255809a9.722653 9.722653 0 0 0-3.889061-7.675778 13.611714 13.611714 0 0 0-9.262106-2.763281h0.869922zM151.468692 856.616861c-19.445305 0.102344-35.052721 13.560542-34.950377 30.089051 0.051172 16.477337 15.863275 29.833192 35.257408 29.78202 19.445305 0 35.103893-13.407026 35.103893-29.935536a27.939833 27.939833 0 0 0-10.694918-21.492179 38.839438 38.839438 0 0 0-25.585927-8.443356h0.869921z m473.032632-340.958073c-6.754685 0-12.281245 4.707811-12.281245 10.439058v130.334716c0 5.731248 5.52656 10.439059 12.281245 10.439059s12.281245-4.707811 12.281246-10.439059v-131.306981a9.978512 9.978512 0 0 0-4.298436-7.215232 13.765229 13.765229 0 0 0-9.108591-2.405077l1.125781 0.153516z m0 287.074109c-6.754685 0-12.281245 4.707811-12.281245 10.439058v131.306982c0 5.731248 5.52656 10.439059 12.281245 10.439058s12.281245-4.707811 12.281246-10.439058V813.120784a9.722653 9.722653 0 0 0-3.889061-7.829294 13.662885 13.662885 0 0 0-9.517966-2.763281l1.125781 0.204688z m77.883564 0a13.458198 13.458198 0 0 0-8.699215 3.070311 9.722653 9.722653 0 0 0-3.58203 7.368747v131.306982c0 5.731248 5.52656 10.439059 12.281245 10.439058 6.805857 0 12.281245-4.707811 12.281246-10.439058V813.120784a9.722653 9.722653 0 0 0-3.889061-7.829294 13.662885 13.662885 0 0 0-9.517966-2.763281l1.125781 0.204688z m155.8183-573.943531a13.458198 13.458198 0 0 0-8.699215 3.070311 9.722653 9.722653 0 0 0-3.58203 7.368747V370.484234c0 5.78242 5.475389 10.439059 12.281245 10.439058 6.754685 0 12.281245-4.656639 12.281246-10.439058V239.228424a9.722653 9.722653 0 0 0-3.940233-7.880465 13.662885 13.662885 0 0 0-9.466794-2.763281l1.125781 0.204688z m-155.8183 0a13.458198 13.458198 0 0 0-8.699215 3.070311 9.722653 9.722653 0 0 0-3.58203 7.368747V370.484234c0 5.78242 5.52656 10.439059 12.281245 10.439058 6.805857 0 12.281245-4.656639 12.281246-10.439058V239.228424a9.722653 9.722653 0 0 0-3.889061-7.880465 13.662885 13.662885 0 0 0-9.517966-2.763281l1.125781 0.204688z m77.934736 0a13.458198 13.458198 0 0 0-8.699215 3.070311 9.722653 9.722653 0 0 0-3.58203 7.368747V370.484234c0 5.78242 5.475389 10.439059 12.281245 10.439058 6.754685 0 12.281245-4.656639 12.281246-10.439058V239.228424a9.722653 9.722653 0 0 0-3.940233-7.880465 13.662885 13.662885 0 0 0-9.517965-2.763281l1.176952 0.204688zM425.340463 282.826845c-19.445305 0.102344-35.052721 13.560542-34.950378 30.089051 0.051172 16.477337 15.863275 29.833192 35.257409 29.78202 19.445305 0 35.103893-13.407026 35.103893-29.935535a28.093349 28.093349 0 0 0-10.694918-21.748039 39.044126 39.044126 0 0 0-25.841787-8.5457l1.125781 0.358203z m199.416721-54.037479a13.458198 13.458198 0 0 0-8.699216 3.070311 9.722653 9.722653 0 0 0-3.58203 7.368747V370.484234c0 5.78242 5.475389 10.439059 12.281246 10.439058 6.754685 0 12.281245-4.656639 12.281245-10.439058V239.228424a9.722653 9.722653 0 0 0-3.991405-7.982809 13.714057 13.714057 0 0 0-9.671481-2.660937l1.381641 0.204688zM1228.124532 407.737344V203.305782c0-16.27265-11.206636-30.958973-28.65624-37.662486L999.898056 0H227.714757L29.270301 165.796812c-17.398431 6.703513-28.605067 21.492179-28.605067 37.713657v210.213983c3.530858 20.315227 24.050772 35.359752 48.152716 35.30858-26.865224 0-48.715606 18.524212-48.81795 41.346859v204.687422c0 10.950777 5.117186 21.492179 14.32812 29.321473 9.10859 7.778122 21.543351 12.178902 34.48983 12.178902-26.865224 0-48.715606 18.421868-48.81795 41.295687v204.278047c0.102344 22.822648 21.952726 41.295687 48.81795 41.295688h1128.851132c26.916396 0 48.715606-18.421868 48.869122-41.295688V777.300485c-0.153516-22.873819-21.952726-41.346859-48.81795-41.346859 12.946479 0 25.38124-4.349608 34.48983-12.12773a38.634751 38.634751 0 0 0 14.32812-29.372645V490.379891c-0.153516-22.822648-21.952726-41.295687-48.81795-41.295687 12.997651 0.102344 25.585928-4.247264 34.796862-12.025386a38.685923 38.685923 0 0 0 14.481635-29.474989l1.125781 0.153515z m-40.221079 369.716656v204.278047c0 4.093748-3.837889 7.317575-8.596872 7.317576H49.278497c-4.758983 0-8.648044-3.274999-8.648044-7.317576V777.300485c0-4.093748 3.889061-7.368747 8.648044-7.368747h1128.851132c4.810154 0 8.699215 3.274999 8.699215 7.368747l1.074609 0.153515z m0-287.074109v204.687422a6.805857 6.805857 0 0 1-2.507421 5.117186 9.466793 9.466793 0 0 1-6.140622 2.200389H49.329669a9.466793 9.466793 0 0 1-6.140623-2.149218 6.805857 6.805857 0 0 1-2.507421-5.219529V490.379891c0-4.093748 3.889061-7.317575 8.648044-7.317575h1128.851132c4.810154 0 8.699215 3.274999 8.699215 7.317575h1.074609z m0-82.796062c0 4.042577-3.837889 7.317575-8.596872 7.317575H49.278497c-4.758983 0-8.648044-3.274999-8.648044-7.317575V203.305782c0-4.093748 3.889061-7.368747 8.648044-7.368747h1128.851132c4.810154 0 8.699215 3.326171 8.699215 7.368747l1.074609 204.278047zM1066.933187 282.468642c-19.445305 0.102344-35.052721 13.560542-34.950378 30.037879 0.051172 16.477337 15.863275 29.833192 35.257409 29.78202 19.445305 0 35.103893-13.407026 35.103893-29.884363a28.144521 28.144521 0 0 0-10.848434-21.543351 39.095298 39.095298 0 0 0-25.688271-8.392185h1.125781z m-130.795263-54.088651c-6.754685 0-12.281245 4.707811-12.281245 10.439059v131.306981c0 5.731248 5.52656 10.387887 12.281245 10.387886s12.281245-4.605467 12.281245-10.387886V238.81905a9.824996 9.824996 0 0 0-4.14492-7.675779 13.714057 13.714057 0 0 0-9.517965-2.558593l1.38164-0.204687zM160.78197 283.492079a41.346859 41.346859 0 0 0-7.471091 0 38.634751 38.634751 0 0 0-25.074209 8.699216 27.888661 27.888661 0 0 0-10.387887 21.185148 23.027335 23.027335 0 0 0 0 3.889061c2.456249 14.839838 17.398431 25.841787 35.001549 25.790615 17.65429-0.051172 32.494128-11.206636 34.796862-26.046474 2.251562-14.839838-8.699215-28.860926-25.739443-32.749988l-1.125781-0.767578z m697.421218 231.65499a13.458198 13.458198 0 0 0-8.699215 3.070311 9.722653 9.722653 0 0 0-3.58203 7.368748v130.897606c0 5.731248 5.475389 10.439059 12.281245 10.439058 6.754685 0 12.281245-4.707811 12.281246-10.439058v-131.306981a9.978512 9.978512 0 0 0-4.349608-7.215232 13.765229 13.765229 0 0 0-9.057419-2.405077l1.125781-0.409375z m-77.883564 0a13.458198 13.458198 0 0 0-8.699215 3.070311 9.722653 9.722653 0 0 0-3.58203 7.368748v130.897606c0 5.731248 5.475389 10.439059 12.281245 10.439058 6.754685 0 12.281245-4.707811 12.281246-10.439058v-131.306981a9.978512 9.978512 0 0 0-4.349608-7.215232 13.765229 13.765229 0 0 0-9.10859-2.405077l1.176952-0.409375zM288.404577 282.059267c-19.445305 0.102344-35.052721 13.560542-34.950377 30.03788 0.051172 16.528509 15.863275 29.833192 35.257409 29.833191 19.445305 0 35.103893-13.458198 35.103892-29.935535a28.246864 28.246864 0 0 0-11.001948-21.287492 39.146469 39.146469 0 0 0-25.585928-8.238669l1.176952-0.409375z m647.426316 233.03663a13.458198 13.458198 0 0 0-8.648044 3.070312 9.722653 9.722653 0 0 0-3.582029 7.368747v130.897606c0 5.731248 5.475389 10.439059 12.281245 10.439059 6.754685 0 12.281245-4.707811 12.281245-10.439059v-131.306981a9.978512 9.978512 0 0 0-4.349608-7.215232 13.765229 13.765229 0 0 0-9.10859-2.405077l1.125781-0.409375z m-233.446005 0a13.458198 13.458198 0 0 0-8.699215 3.070312 9.722653 9.722653 0 0 0-3.58203 7.368747v130.897606c0 5.731248 5.52656 10.439059 12.281245 10.439059 6.805857 0 12.281245-4.707811 12.281246-10.439059v-131.306981a9.978512 9.978512 0 0 0-4.298436-7.215232 13.765229 13.765229 0 0 0-9.108591-2.405077l1.125781-0.409375z m363.320174 54.03748c-19.342961 0.153516-35.001549 13.560542-34.950377 30.089051 0.102344 16.477337 15.863275 29.833192 35.30858 29.78202 19.445305 0 35.103893-13.407026 35.103893-29.935536-0.358203-16.374994-16.119134-29.526161-35.410924-29.526161v-0.409374z" fill="#515151" p-id="4705"></path></svg>